<?xml version="1.0" encoding="UTF-8" standalone="no"?>
<!DOCTYPE svg PUBLIC "-//W3C//DTD SVG 1.1//EN"
 "http://www.w3.org/Graphics/SVG/1.1/DTD/svg11.dtd">
<!-- Generated by graphviz version 12.2.1 (20241206.2353)
 -->
<!-- Title: sumIndices Pages: 1 -->
<svg width="1034pt" height="330pt"
 viewBox="0.00 0.00 1034.00 330.00" xmlns="http://www.w3.org/2000/svg" xmlns:xlink="http://www.w3.org/1999/xlink">
<g id="graph0" class="graph" transform="scale(1 1) rotate(0) translate(4 326)">
<title>sumIndices</title>
<!-- Node1 -->
<g id="Node000001" class="node">
<title>Node1</title>
<g id="a_Node000001"><a xlink:title="Computes the sum of indices of a subset of pallets within the full pallet list.">
<polygon fill="#999999" stroke="#666666" points="1026,-85.62 959.75,-85.62 959.75,-66.38 1026,-66.38 1026,-85.62"/>
<text text-anchor="middle" x="992.88" y="-72.12" font-family="Helvetica,sans-Serif" font-size="10.00">sumIndices</text>
</a>
</g>
</g>
<!-- Node2 -->
<g id="Node000002" class="node">
<title>Node2</title>
<g id="a_Node000002"><a xlink:href="brute_force_8cpp.html#a60a210b47c158323349fd5fdd12670a7" target="_top" xlink:title="Recursive helper function to generate all possible combinations of pallets.">
<polygon fill="white" stroke="#666666" points="923.75,-85.62 865,-85.62 865,-66.38 923.75,-66.38 923.75,-85.62"/>
<text text-anchor="middle" x="894.38" y="-72.12" font-family="Helvetica,sans-Serif" font-size="10.00">backtrack</text>
</a>
</g>
</g>
<!-- Node1&#45;&gt;Node2 -->
<g id="edge1_Node000001_Node000002" class="edge">
<title>Node1&#45;&gt;Node2</title>
<g id="a_edge1_Node000001_Node000002"><a xlink:title=" ">
<path fill="none" stroke="#63b8ff" d="M948.11,-76C939.92,-76 931.55,-76 923.97,-76"/>
<polygon fill="#63b8ff" stroke="#63b8ff" points="947.96,-79.5 957.96,-76 947.96,-72.5 947.96,-79.5"/>
</a>
</g>
</g>
<!-- Node10 -->
<g id="Node000010" class="node">
<title>Node10</title>
<g id="a_Node000010"><a xlink:href="dynamic_programming_8cpp.html#a65ced1110e5c23b49889f10d4c390c48" target="_top" xlink:title="Solves the 0/1 knapsack problem using dynamic programming.">
<polygon fill="white" stroke="#666666" points="110.5,-123.62 0,-123.62 0,-104.38 110.5,-104.38 110.5,-123.62"/>
<text text-anchor="middle" x="55.25" y="-110.12" font-family="Helvetica,sans-Serif" font-size="10.00">dynamicProgramming</text>
</a>
</g>
</g>
<!-- Node1&#45;&gt;Node10 -->
<g id="edge20_Node000001_Node000010" class="edge">
<title>Node1&#45;&gt;Node10</title>
<g id="a_edge20_Node000001_Node000010"><a xlink:title=" ">
<path fill="none" stroke="#63b8ff" d="M968.19,-59.96C932.9,-37.66 863.68,0 798.75,0 798.75,0 798.75,0 324.75,0 218.91,0 106.93,-75.98 69.37,-103.88"/>
<polygon fill="#63b8ff" stroke="#63b8ff" points="966.05,-62.74 976.34,-65.24 969.85,-56.87 966.05,-62.74"/>
</a>
</g>
</g>
<!-- Node12 -->
<g id="Node000012" class="node">
<title>Node12</title>
<g id="a_Node000012"><a xlink:href="hybrid_algorithm_8cpp.html#ab6b0743f8f01b3ae22e6b3aeeabd9a3c" target="_top" xlink:title="Hybrid algorithm combining greedy and dynamic programming approaches.">
<polygon fill="white" stroke="#666666" points="97,-293.62 13.5,-293.62 13.5,-274.38 97,-274.38 97,-293.62"/>
<text text-anchor="middle" x="55.25" y="-280.12" font-family="Helvetica,sans-Serif" font-size="10.00">hybridAlgorithm</text>
</a>
</g>
</g>
<!-- Node1&#45;&gt;Node12 -->
<g id="edge21_Node000001_Node000012" class="edge">
<title>Node1&#45;&gt;Node12</title>
<g id="a_edge21_Node000001_Node000012"><a xlink:title=" ">
<path fill="none" stroke="#63b8ff" d="M986.47,-96.92C969.72,-156.37 912.81,-322 798.75,-322 798.75,-322 798.75,-322 324.75,-322 243.54,-322 149.86,-304.75 97.39,-293.49"/>
<polygon fill="#63b8ff" stroke="#63b8ff" points="989.81,-97.98 989.04,-87.41 983.05,-96.15 989.81,-97.98"/>
</a>
</g>
</g>
<!-- Node2&#45;&gt;Node2 -->
<g id="edge2_Node000002_Node000002" class="edge">
<title>Node2&#45;&gt;Node2</title>
<g id="a_edge2_Node000002_Node000002"><a xlink:title=" ">
<path fill="none" stroke="#63b8ff" d="M911.53,-97.03C909.38,-100.9 903.66,-103.62 894.38,-103.62 877.39,-103.62 872.35,-94.52 879.25,-85.91"/>
<polygon fill="#63b8ff" stroke="#63b8ff" points="915.01,-96.61 909.77,-87.4 908.12,-97.87 915.01,-96.61"/>
</a>
</g>
</g>
<!-- Node3 -->
<g id="Node000003" class="node">
<title>Node3</title>
<g id="a_Node000003"><a xlink:href="brute_force_8cpp.html#a69edcf63a452d0c85b37bc82c233e5f9" target="_top" xlink:title="Solves the 0/1 knapsack problem using brute&#45;force approach.">
<polygon fill="white" stroke="#666666" points="829,-85.62 766.5,-85.62 766.5,-66.38 829,-66.38 829,-85.62"/>
<text text-anchor="middle" x="797.75" y="-72.12" font-family="Helvetica,sans-Serif" font-size="10.00">bruteForce</text>
</a>
</g>
</g>
<!-- Node2&#45;&gt;Node3 -->
<g id="edge3_Node000002_Node000003" class="edge">
<title>Node2&#45;&gt;Node3</title>
<g id="a_edge3_Node000002_Node000003"><a xlink:title=" ">
<path fill="none" stroke="#63b8ff" d="M853.27,-76C845.24,-76 836.92,-76 829.27,-76"/>
<polygon fill="#63b8ff" stroke="#63b8ff" points="853.21,-79.5 863.21,-76 853.21,-72.5 853.21,-79.5"/>
</a>
</g>
</g>
<!-- Node4 -->
<g id="Node000004" class="node">
<title>Node4</title>
<g id="a_Node000004"><a xlink:href="menu_8cpp.html#aa8866811b98525a20975ec74689ae166" target="_top" xlink:title="Allows the user to choose which algorithm to apply for pallet packing optimization.">
<polygon fill="white" stroke="#666666" points="730.5,-180.62 641.75,-180.62 641.75,-161.38 730.5,-161.38 730.5,-180.62"/>
<text text-anchor="middle" x="686.12" y="-167.12" font-family="Helvetica,sans-Serif" font-size="10.00">chooseAlgorithm</text>
</a>
</g>
</g>
<!-- Node3&#45;&gt;Node4 -->
<g id="edge4_Node000003_Node000004" class="edge">
<title>Node3&#45;&gt;Node4</title>
<g id="a_edge4_Node000003_Node000004"><a xlink:title=" ">
<path fill="none" stroke="#63b8ff" d="M776.84,-93.26C753.92,-113.11 717.08,-145.04 698.55,-161.1"/>
<polygon fill="#63b8ff" stroke="#63b8ff" points="779.02,-95.99 784.29,-86.8 774.44,-90.7 779.02,-95.99"/>
</a>
</g>
</g>
<!-- Node5 -->
<g id="Node000005" class="node">
<title>Node5</title>
<g id="a_Node000005"><a xlink:href="menu_8cpp.html#a59c2926dd9b0968badf463aaf4f91422" target="_top" xlink:title="Prompts the user to select a dataset and loads the corresponding files.">
<polygon fill="white" stroke="#666666" points="605.75,-199.62 535,-199.62 535,-180.38 605.75,-180.38 605.75,-199.62"/>
<text text-anchor="middle" x="570.38" y="-186.12" font-family="Helvetica,sans-Serif" font-size="10.00">displayMenu</text>
</a>
</g>
</g>
<!-- Node4&#45;&gt;Node5 -->
<g id="edge5_Node000004_Node000005" class="edge">
<title>Node4&#45;&gt;Node5</title>
<g id="a_edge5_Node000004_Node000005"><a xlink:title=" ">
<path fill="none" stroke="#63b8ff" d="M630.26,-180.16C621.96,-181.55 613.61,-182.95 605.91,-184.23"/>
<polygon fill="#63b8ff" stroke="#63b8ff" points="630.69,-183.64 639.98,-178.54 629.54,-176.74 630.69,-183.64"/>
</a>
</g>
</g>
<!-- Node8 -->
<g id="Node000008" class="node">
<title>Node8</title>
<g id="a_Node000008"><a xlink:href="restart_or_exit_8cpp.html#ab17533eaaae8ec59a61793733ac91cb6" target="_top" xlink:title="Prompts the user to either test another dataset or run another algorithm.">
<polygon fill="white" stroke="#666666" points="378.75,-161.62 272.75,-161.62 272.75,-142.38 378.75,-142.38 378.75,-161.62"/>
<text text-anchor="middle" x="325.75" y="-148.12" font-family="Helvetica,sans-Serif" font-size="10.00">promptRestartOrExit</text>
</a>
</g>
</g>
<!-- Node4&#45;&gt;Node8 -->
<g id="edge19_Node000004_Node000008" class="edge">
<title>Node4&#45;&gt;Node8</title>
<g id="a_edge19_Node000004_Node000008"><a xlink:title=" ">
<path fill="none" stroke="#63b8ff" d="M630.18,-168.09C561.85,-164.46 446.07,-158.33 379.01,-154.77"/>
<polygon fill="#63b8ff" stroke="#63b8ff" points="629.86,-171.57 640.03,-168.61 630.23,-164.58 629.86,-171.57"/>
</a>
</g>
</g>
<!-- Node5&#45;&gt;Node5 -->
<g id="edge6_Node000005_Node000005" class="edge">
<title>Node5&#45;&gt;Node5</title>
<g id="a_edge6_Node000005_Node000005"><a xlink:title=" ">
<path fill="none" stroke="#63b8ff" d="M590.52,-211.03C588,-214.9 581.29,-217.62 570.38,-217.62 550.42,-217.62 544.5,-208.52 552.61,-199.91"/>
<polygon fill="#63b8ff" stroke="#63b8ff" points="593.97,-210.44 588.46,-201.39 587.13,-211.9 593.97,-210.44"/>
</a>
</g>
</g>
<!-- Node6 -->
<g id="Node000006" class="node">
<title>Node6</title>
<g id="a_Node000006"><a xlink:href="menu_8cpp.html#a547646815560a705ed2ab461dbf46d04" target="_top" xlink:title="Displays the main menu of the application.">
<polygon fill="white" stroke="#666666" points="499,-199.62 414.75,-199.62 414.75,-180.38 499,-180.38 499,-199.62"/>
<text text-anchor="middle" x="456.88" y="-186.12" font-family="Helvetica,sans-Serif" font-size="10.00">showMainMenu</text>
</a>
</g>
</g>
<!-- Node5&#45;&gt;Node6 -->
<g id="edge7_Node000005_Node000006" class="edge">
<title>Node5&#45;&gt;Node6</title>
<g id="a_edge7_Node000005_Node000006"><a xlink:title=" ">
<path fill="none" stroke="#63b8ff" d="M523.28,-190C515.29,-190 507.03,-190 499.18,-190"/>
<polygon fill="#63b8ff" stroke="#63b8ff" points="523.19,-193.5 533.19,-190 523.19,-186.5 523.19,-193.5"/>
</a>
</g>
</g>
<!-- Node7 -->
<g id="Node000007" class="node">
<title>Node7</title>
<g id="a_Node000007"><a xlink:href="main_8cpp.html#ae66f6b31b5ad750f1fe042a706a4e3d4" target="_top" xlink:title="Program entry point.">
<polygon fill="white" stroke="#666666" points="344.25,-199.62 307.25,-199.62 307.25,-180.38 344.25,-180.38 344.25,-199.62"/>
<text text-anchor="middle" x="325.75" y="-186.12" font-family="Helvetica,sans-Serif" font-size="10.00">main</text>
</a>
</g>
</g>
<!-- Node6&#45;&gt;Node7 -->
<g id="edge8_Node000006_Node000007" class="edge">
<title>Node6&#45;&gt;Node7</title>
<g id="a_edge8_Node000006_Node000007"><a xlink:title=" ">
<path fill="none" stroke="#63b8ff" d="M402.96,-190C382.12,-190 359.61,-190 344.5,-190"/>
<polygon fill="#63b8ff" stroke="#63b8ff" points="402.79,-193.5 412.79,-190 402.79,-186.5 402.79,-193.5"/>
</a>
</g>
</g>
<!-- Node6&#45;&gt;Node8 -->
<g id="edge9_Node000006_Node000008" class="edge">
<title>Node6&#45;&gt;Node8</title>
<g id="a_edge9_Node000006_Node000008"><a xlink:title=" ">
<path fill="none" stroke="#63b8ff" d="M410.61,-176.68C394.21,-171.85 375.99,-166.49 360.73,-162"/>
<polygon fill="#63b8ff" stroke="#63b8ff" points="409.58,-180.02 420.16,-179.49 411.55,-173.31 409.58,-180.02"/>
</a>
</g>
</g>
<!-- Node8&#45;&gt;Node3 -->
<g id="edge10_Node000008_Node000003" class="edge">
<title>Node8&#45;&gt;Node3</title>
<g id="a_edge10_Node000008_Node000003"><a xlink:title=" ">
<path fill="none" stroke="#63b8ff" d="M390.35,-141.72C492.81,-125.15 690.59,-93.17 766.27,-80.93"/>
<polygon fill="#63b8ff" stroke="#63b8ff" points="390.05,-138.22 380.73,-143.27 391.16,-145.13 390.05,-138.22"/>
</a>
</g>
</g>
<!-- Node9 -->
<g id="Node000009" class="node">
<title>Node9</title>
<g id="a_Node000009"><a xlink:href="print_pallet_details_8cpp.html#afaf0a4d2e9042535426e2a7774dda8a8" target="_top" xlink:title="Prints details about the selected pallets.">
<polygon fill="white" stroke="#666666" points="236.75,-161.62 146.5,-161.62 146.5,-142.38 236.75,-142.38 236.75,-161.62"/>
<text text-anchor="middle" x="191.62" y="-148.12" font-family="Helvetica,sans-Serif" font-size="10.00">printPalletDetails</text>
</a>
</g>
</g>
<!-- Node8&#45;&gt;Node9 -->
<g id="edge11_Node000008_Node000009" class="edge">
<title>Node8&#45;&gt;Node9</title>
<g id="a_edge11_Node000008_Node000009"><a xlink:title=" ">
<path fill="none" stroke="#63b8ff" d="M261.17,-152C253.07,-152 244.92,-152 237.21,-152"/>
<polygon fill="#63b8ff" stroke="#63b8ff" points="261.02,-155.5 271.02,-152 261.02,-148.5 261.02,-155.5"/>
</a>
</g>
</g>
<!-- Node9&#45;&gt;Node3 -->
<g id="edge12_Node000009_Node000003" class="edge">
<title>Node9&#45;&gt;Node3</title>
<g id="a_edge12_Node000009_Node000003"><a xlink:title=" ">
<path fill="none" stroke="#63b8ff" d="M214.54,-135.13C258,-103.4 359.31,-38 455.88,-38 571.38,-38 571.38,-38 571.38,-38 641.81,-38 722.92,-56.27 766.04,-67.47"/>
<polygon fill="#63b8ff" stroke="#63b8ff" points="212.61,-132.2 206.68,-140.98 216.79,-137.82 212.61,-132.2"/>
</a>
</g>
</g>
<!-- Node9&#45;&gt;Node10 -->
<g id="edge13_Node000009_Node000010" class="edge">
<title>Node9&#45;&gt;Node10</title>
<g id="a_edge13_Node000009_Node000010"><a xlink:title=" ">
<path fill="none" stroke="#63b8ff" d="M144.01,-138.82C126.82,-133.96 107.64,-128.53 91.61,-124"/>
<polygon fill="#63b8ff" stroke="#63b8ff" points="142.94,-142.15 153.51,-141.5 144.84,-135.42 142.94,-142.15"/>
</a>
</g>
</g>
<!-- Node11 -->
<g id="Node000011" class="node">
<title>Node11</title>
<g id="a_Node000011"><a xlink:href="greedy_algorithm_8cpp.html#ac07353f6977284db6277faff5e48d716" target="_top" xlink:title="Solves the 0/1 knapsack problem using a greedy heuristic.">
<polygon fill="white" stroke="#666666" points="98.5,-208.62 12,-208.62 12,-189.38 98.5,-189.38 98.5,-208.62"/>
<text text-anchor="middle" x="55.25" y="-195.12" font-family="Helvetica,sans-Serif" font-size="10.00">greedyAlgorithm</text>
</a>
</g>
</g>
<!-- Node9&#45;&gt;Node11 -->
<g id="edge15_Node000009_Node000011" class="edge">
<title>Node9&#45;&gt;Node11</title>
<g id="a_edge15_Node000009_Node000011"><a xlink:title=" ">
<path fill="none" stroke="#63b8ff" d="M151.18,-165.8C129.99,-173.21 104.33,-182.18 85.03,-188.93"/>
<polygon fill="#63b8ff" stroke="#63b8ff" points="152.09,-169.19 160.37,-162.58 149.77,-162.58 152.09,-169.19"/>
</a>
</g>
</g>
<!-- Node9&#45;&gt;Node12 -->
<g id="edge17_Node000009_Node000012" class="edge">
<title>Node9&#45;&gt;Node12</title>
<g id="a_edge17_Node000009_Node000012"><a xlink:title=" ">
<path fill="none" stroke="#63b8ff" d="M172.55,-169.75C143.94,-197.86 89.15,-251.69 66.47,-273.96"/>
<polygon fill="#63b8ff" stroke="#63b8ff" points="174.76,-172.49 179.45,-162.98 169.86,-167.49 174.76,-172.49"/>
</a>
</g>
</g>
<!-- Node10&#45;&gt;Node4 -->
<g id="edge14_Node000010_Node000004" class="edge">
<title>Node10&#45;&gt;Node4</title>
<g id="a_edge14_Node000010_Node000004"><a xlink:title=" ">
<path fill="none" stroke="#63b8ff" d="M121.97,-114C176.33,-114 255.55,-114 324.75,-114 457.88,-114 457.88,-114 457.88,-114 534.14,-114 620.6,-144.58 661.4,-160.94"/>
<polygon fill="#63b8ff" stroke="#63b8ff" points="122.27,-110.5 112.27,-114 122.27,-117.5 122.27,-110.5"/>
</a>
</g>
</g>
<!-- Node11&#45;&gt;Node4 -->
<g id="edge16_Node000011_Node000004" class="edge">
<title>Node11&#45;&gt;Node4</title>
<g id="a_edge16_Node000011_Node000004"><a xlink:title=" ">
<path fill="none" stroke="#63b8ff" d="M102.17,-212.03C155.29,-225.94 245.61,-246 324.75,-246 457.88,-246 457.88,-246 457.88,-246 524.14,-246 544,-251.03 605.75,-227 633.25,-216.3 660.25,-194.06 674.57,-181.06"/>
<polygon fill="#63b8ff" stroke="#63b8ff" points="103.12,-208.67 92.56,-209.47 101.32,-215.43 103.12,-208.67"/>
</a>
</g>
</g>
<!-- Node12&#45;&gt;Node4 -->
<g id="edge18_Node000012_Node000004" class="edge">
<title>Node12&#45;&gt;Node4</title>
<g id="a_edge18_Node000012_Node000004"><a xlink:title=" ">
<path fill="none" stroke="#63b8ff" d="M108.55,-284C162.66,-284 249.62,-284 324.75,-284 457.88,-284 457.88,-284 457.88,-284 525.31,-284 546.71,-282.6 605.75,-250 637.75,-232.33 665.56,-198.01 678.07,-181.02"/>
<polygon fill="#63b8ff" stroke="#63b8ff" points="108.7,-280.5 98.7,-284 108.7,-287.5 108.7,-280.5"/>
</a>
</g>
</g>
</g>
</svg>
