<?xml version="1.0" encoding="UTF-8" standalone="no"?>
<!DOCTYPE svg PUBLIC "-//W3C//DTD SVG 1.1//EN"
 "http://www.w3.org/Graphics/SVG/1.1/DTD/svg11.dtd">
<!-- Generated by graphviz version 12.2.1 (20241206.2353)
 -->
<!-- Title: readPallets Pages: 1 -->
<svg width="839pt" height="205pt"
 viewBox="0.00 0.00 839.25 204.62" xmlns="http://www.w3.org/2000/svg" xmlns:xlink="http://www.w3.org/1999/xlink">
<g id="graph0" class="graph" transform="scale(1 1) rotate(0) translate(4 200.62)">
<title>readPallets</title>
<!-- Node1 -->
<g id="Node000001" class="node">
<title>Node1</title>
<g id="a_Node000001"><a xlink:title="Reads pallet data from a CSV file.">
<polygon fill="#999999" stroke="#666666" points="831.25,-28.62 766.5,-28.62 766.5,-9.38 831.25,-9.38 831.25,-28.62"/>
<text text-anchor="middle" x="798.88" y="-15.12" font-family="Helvetica,sans-Serif" font-size="10.00">readPallets</text>
</a>
</g>
</g>
<!-- Node2 -->
<g id="Node000002" class="node">
<title>Node2</title>
<g id="a_Node000002"><a xlink:href="menu_8cpp.html#a59c2926dd9b0968badf463aaf4f91422" target="_top" xlink:title="Prompts the user to select a dataset and loads the corresponding files.">
<polygon fill="white" stroke="#666666" points="730.5,-28.62 659.75,-28.62 659.75,-9.38 730.5,-9.38 730.5,-28.62"/>
<text text-anchor="middle" x="695.12" y="-15.12" font-family="Helvetica,sans-Serif" font-size="10.00">displayMenu</text>
</a>
</g>
</g>
<!-- Node1&#45;&gt;Node2 -->
<g id="edge1_Node000001_Node000002" class="edge">
<title>Node1&#45;&gt;Node2</title>
<g id="a_edge1_Node000001_Node000002"><a xlink:title=" ">
<path fill="none" stroke="#63b8ff" d="M754.84,-19C746.86,-19 738.62,-19 730.93,-19"/>
<polygon fill="#63b8ff" stroke="#63b8ff" points="754.72,-22.5 764.72,-19 754.72,-15.5 754.72,-22.5"/>
</a>
</g>
</g>
<!-- Node2&#45;&gt;Node2 -->
<g id="edge2_Node000002_Node000002" class="edge">
<title>Node2&#45;&gt;Node2</title>
<g id="a_edge2_Node000002_Node000002"><a xlink:title=" ">
<path fill="none" stroke="#63b8ff" d="M713.54,-40.03C711.24,-43.9 705.1,-46.62 695.12,-46.62 676.89,-46.62 671.47,-37.52 678.88,-28.91"/>
<polygon fill="#63b8ff" stroke="#63b8ff" points="717.01,-39.54 711.66,-30.4 710.14,-40.88 717.01,-39.54"/>
</a>
</g>
</g>
<!-- Node3 -->
<g id="Node000003" class="node">
<title>Node3</title>
<g id="a_Node000003"><a xlink:href="menu_8cpp.html#a547646815560a705ed2ab461dbf46d04" target="_top" xlink:title="Displays the main menu of the application.">
<polygon fill="white" stroke="#666666" points="623.75,-84.62 539.5,-84.62 539.5,-65.38 623.75,-65.38 623.75,-84.62"/>
<text text-anchor="middle" x="581.62" y="-71.12" font-family="Helvetica,sans-Serif" font-size="10.00">showMainMenu</text>
</a>
</g>
</g>
<!-- Node2&#45;&gt;Node3 -->
<g id="edge3_Node000002_Node000003" class="edge">
<title>Node2&#45;&gt;Node3</title>
<g id="a_edge3_Node000002_Node000003"><a xlink:title=" ">
<path fill="none" stroke="#63b8ff" d="M664.02,-34.12C644.59,-43.88 619.84,-56.31 602.76,-64.89"/>
<polygon fill="#63b8ff" stroke="#63b8ff" points="665.47,-37.31 672.84,-29.69 662.33,-31.05 665.47,-37.31"/>
</a>
</g>
</g>
<!-- Node4 -->
<g id="Node000004" class="node">
<title>Node4</title>
<g id="a_Node000004"><a xlink:href="main_8cpp.html#ae66f6b31b5ad750f1fe042a706a4e3d4" target="_top" xlink:title="Program entry point.">
<polygon fill="white" stroke="#666666" points="469,-121.62 432,-121.62 432,-102.38 469,-102.38 469,-121.62"/>
<text text-anchor="middle" x="450.5" y="-108.12" font-family="Helvetica,sans-Serif" font-size="10.00">main</text>
</a>
</g>
</g>
<!-- Node3&#45;&gt;Node4 -->
<g id="edge4_Node000003_Node000004" class="edge">
<title>Node3&#45;&gt;Node4</title>
<g id="a_edge4_Node000003_Node000004"><a xlink:title=" ">
<path fill="none" stroke="#63b8ff" d="M534.57,-88.2C511.98,-94.67 486.09,-102.09 469.3,-106.9"/>
<polygon fill="#63b8ff" stroke="#63b8ff" points="535.24,-91.65 543.89,-85.53 533.31,-84.92 535.24,-91.65"/>
</a>
</g>
</g>
<!-- Node5 -->
<g id="Node000005" class="node">
<title>Node5</title>
<g id="a_Node000005"><a xlink:href="restart_or_exit_8cpp.html#ab17533eaaae8ec59a61793733ac91cb6" target="_top" xlink:title="Prompts the user to either test another dataset or run another algorithm.">
<polygon fill="white" stroke="#666666" points="503.5,-84.62 397.5,-84.62 397.5,-65.38 503.5,-65.38 503.5,-84.62"/>
<text text-anchor="middle" x="450.5" y="-71.12" font-family="Helvetica,sans-Serif" font-size="10.00">promptRestartOrExit</text>
</a>
</g>
</g>
<!-- Node3&#45;&gt;Node5 -->
<g id="edge5_Node000003_Node000005" class="edge">
<title>Node3&#45;&gt;Node5</title>
<g id="a_edge5_Node000003_Node000005"><a xlink:title=" ">
<path fill="none" stroke="#63b8ff" d="M527.74,-75C519.86,-75 511.74,-75 503.87,-75"/>
<polygon fill="#63b8ff" stroke="#63b8ff" points="527.54,-78.5 537.54,-75 527.54,-71.5 527.54,-78.5"/>
</a>
</g>
</g>
<!-- Node6 -->
<g id="Node000006" class="node">
<title>Node6</title>
<g id="a_Node000006"><a xlink:href="brute_force_8cpp.html#a69edcf63a452d0c85b37bc82c233e5f9" target="_top" xlink:title="Solves the 0/1 knapsack problem using brute&#45;force approach.">
<polygon fill="white" stroke="#666666" points="211.25,-196.62 148.75,-196.62 148.75,-177.38 211.25,-177.38 211.25,-196.62"/>
<text text-anchor="middle" x="180" y="-183.12" font-family="Helvetica,sans-Serif" font-size="10.00">bruteForce</text>
</a>
</g>
</g>
<!-- Node5&#45;&gt;Node6 -->
<g id="edge6_Node000005_Node000006" class="edge">
<title>Node5&#45;&gt;Node6</title>
<g id="a_edge6_Node000005_Node000006"><a xlink:title=" ">
<path fill="none" stroke="#63b8ff" d="M402.55,-89.98C400.81,-90.93 399.12,-91.94 397.5,-93 377.76,-105.91 381.48,-119.46 361.5,-132 313.92,-161.87 249.08,-176.4 211.46,-182.74"/>
<polygon fill="#63b8ff" stroke="#63b8ff" points="403.98,-93.18 411.52,-85.74 400.99,-86.85 403.98,-93.18"/>
</a>
</g>
</g>
<!-- Node8 -->
<g id="Node000008" class="node">
<title>Node8</title>
<g id="a_Node000008"><a xlink:href="print_pallet_details_8cpp.html#afaf0a4d2e9042535426e2a7774dda8a8" target="_top" xlink:title="Prints details about the selected pallets.">
<polygon fill="white" stroke="#666666" points="361.5,-122.62 271.25,-122.62 271.25,-103.38 361.5,-103.38 361.5,-122.62"/>
<text text-anchor="middle" x="316.38" y="-109.12" font-family="Helvetica,sans-Serif" font-size="10.00">printPalletDetails</text>
</a>
</g>
</g>
<!-- Node5&#45;&gt;Node8 -->
<g id="edge10_Node000005_Node000008" class="edge">
<title>Node5&#45;&gt;Node8</title>
<g id="a_edge10_Node000005_Node000008"><a xlink:title=" ">
<path fill="none" stroke="#63b8ff" d="M403.67,-88.18C386.76,-93.04 367.91,-98.47 352.14,-103"/>
<polygon fill="#63b8ff" stroke="#63b8ff" points="404.34,-91.63 412.99,-85.5 402.41,-84.9 404.34,-91.63"/>
</a>
</g>
</g>
<!-- Node7 -->
<g id="Node000007" class="node">
<title>Node7</title>
<g id="a_Node000007"><a xlink:href="menu_8cpp.html#aa8866811b98525a20975ec74689ae166" target="_top" xlink:title="Allows the user to choose which algorithm to apply for pallet packing optimization.">
<polygon fill="white" stroke="#666666" points="88.75,-103.62 0,-103.62 0,-84.38 88.75,-84.38 88.75,-103.62"/>
<text text-anchor="middle" x="44.38" y="-90.12" font-family="Helvetica,sans-Serif" font-size="10.00">chooseAlgorithm</text>
</a>
</g>
</g>
<!-- Node6&#45;&gt;Node7 -->
<g id="edge7_Node000006_Node000007" class="edge">
<title>Node6&#45;&gt;Node7</title>
<g id="a_edge7_Node000006_Node000007"><a xlink:title=" ">
<path fill="none" stroke="#63b8ff" d="M137.8,-175.48C133.27,-173.59 128.82,-171.43 124.75,-169 94.64,-151.01 66.6,-119.85 53.36,-103.95"/>
<polygon fill="#63b8ff" stroke="#63b8ff" points="136.4,-178.69 146.99,-178.9 138.84,-172.13 136.4,-178.69"/>
</a>
</g>
</g>
<!-- Node7&#45;&gt;Node2 -->
<g id="edge8_Node000007_Node000002" class="edge">
<title>Node7&#45;&gt;Node2</title>
<g id="a_edge8_Node000007_Node000002"><a xlink:title=" ">
<path fill="none" stroke="#63b8ff" d="M66.92,-77.2C82.27,-66 103.8,-51.77 124.75,-43 204.86,-9.46 228.52,0 315.38,0 451.5,0 451.5,0 451.5,0 525.86,0 612.65,-8.98 659.64,-14.59"/>
<polygon fill="#63b8ff" stroke="#63b8ff" points="64.91,-74.33 59.01,-83.13 69.11,-79.93 64.91,-74.33"/>
</a>
</g>
</g>
<!-- Node7&#45;&gt;Node5 -->
<g id="edge9_Node000007_Node000005" class="edge">
<title>Node7&#45;&gt;Node5</title>
<g id="a_edge9_Node000007_Node000005"><a xlink:title=" ">
<path fill="none" stroke="#63b8ff" d="M70.97,-78.57C86.04,-70.4 105.81,-61.2 124.75,-57 222.74,-35.28 341.22,-52.4 404.49,-64.9"/>
<polygon fill="#63b8ff" stroke="#63b8ff" points="69.66,-75.29 62.67,-83.25 73.1,-81.39 69.66,-75.29"/>
</a>
</g>
</g>
<!-- Node8&#45;&gt;Node6 -->
<g id="edge11_Node000008_Node000006" class="edge">
<title>Node8&#45;&gt;Node6</title>
<g id="a_edge11_Node000008_Node000006"><a xlink:title=" ">
<path fill="none" stroke="#63b8ff" d="M294.54,-130.09C278.96,-142.23 256.73,-158.22 235.25,-169 227.8,-172.74 219.4,-175.96 211.47,-178.61"/>
<polygon fill="#63b8ff" stroke="#63b8ff" points="296.49,-133.02 302.13,-124.06 292.13,-127.54 296.49,-133.02"/>
</a>
</g>
</g>
<!-- Node9 -->
<g id="Node000009" class="node">
<title>Node9</title>
<g id="a_Node000009"><a xlink:href="dynamic_programming_8cpp.html#a65ced1110e5c23b49889f10d4c390c48" target="_top" xlink:title="Solves the 0/1 knapsack problem using dynamic programming.">
<polygon fill="white" stroke="#666666" points="235.25,-159.62 124.75,-159.62 124.75,-140.38 235.25,-140.38 235.25,-159.62"/>
<text text-anchor="middle" x="180" y="-146.12" font-family="Helvetica,sans-Serif" font-size="10.00">dynamicProgramming</text>
</a>
</g>
</g>
<!-- Node8&#45;&gt;Node9 -->
<g id="edge12_Node000008_Node000009" class="edge">
<title>Node8&#45;&gt;Node9</title>
<g id="a_edge12_Node000008_Node000009"><a xlink:title=" ">
<path fill="none" stroke="#63b8ff" d="M267.61,-126.15C251.19,-130.67 233.07,-135.66 217.67,-139.9"/>
<polygon fill="#63b8ff" stroke="#63b8ff" points="268.49,-129.54 277.2,-123.51 266.63,-122.79 268.49,-129.54"/>
</a>
</g>
</g>
<!-- Node10 -->
<g id="Node000010" class="node">
<title>Node10</title>
<g id="a_Node000010"><a xlink:href="greedy_algorithm_8cpp.html#ac07353f6977284db6277faff5e48d716" target="_top" xlink:title="Solves the 0/1 knapsack problem using a greedy heuristic.">
<polygon fill="white" stroke="#666666" points="223.25,-122.62 136.75,-122.62 136.75,-103.38 223.25,-103.38 223.25,-122.62"/>
<text text-anchor="middle" x="180" y="-109.12" font-family="Helvetica,sans-Serif" font-size="10.00">greedyAlgorithm</text>
</a>
</g>
</g>
<!-- Node8&#45;&gt;Node10 -->
<g id="edge14_Node000008_Node000010" class="edge">
<title>Node8&#45;&gt;Node10</title>
<g id="a_edge14_Node000008_Node000010"><a xlink:title=" ">
<path fill="none" stroke="#63b8ff" d="M259.63,-113C247.56,-113 234.97,-113 223.5,-113"/>
<polygon fill="#63b8ff" stroke="#63b8ff" points="259.49,-116.5 269.49,-113 259.49,-109.5 259.49,-116.5"/>
</a>
</g>
</g>
<!-- Node11 -->
<g id="Node000011" class="node">
<title>Node11</title>
<g id="a_Node000011"><a xlink:href="hybrid_algorithm_8cpp.html#ab6b0743f8f01b3ae22e6b3aeeabd9a3c" target="_top" xlink:title="Hybrid algorithm combining greedy and dynamic programming approaches.">
<polygon fill="white" stroke="#666666" points="221.75,-85.62 138.25,-85.62 138.25,-66.38 221.75,-66.38 221.75,-85.62"/>
<text text-anchor="middle" x="180" y="-72.12" font-family="Helvetica,sans-Serif" font-size="10.00">hybridAlgorithm</text>
</a>
</g>
</g>
<!-- Node8&#45;&gt;Node11 -->
<g id="edge16_Node000008_Node000011" class="edge">
<title>Node8&#45;&gt;Node11</title>
<g id="a_edge16_Node000008_Node000011"><a xlink:title=" ">
<path fill="none" stroke="#63b8ff" d="M267.61,-99.85C251.19,-95.33 233.07,-90.34 217.67,-86.1"/>
<polygon fill="#63b8ff" stroke="#63b8ff" points="266.63,-103.21 277.2,-102.49 268.49,-96.46 266.63,-103.21"/>
</a>
</g>
</g>
<!-- Node9&#45;&gt;Node7 -->
<g id="edge13_Node000009_Node000007" class="edge">
<title>Node9&#45;&gt;Node7</title>
<g id="a_edge13_Node000009_Node000007"><a xlink:title=" ">
<path fill="none" stroke="#63b8ff" d="M135.78,-136.21C132.03,-134.85 128.31,-133.44 124.75,-132 103.78,-123.54 80.53,-112.16 64.64,-104.07"/>
<polygon fill="#63b8ff" stroke="#63b8ff" points="134.32,-139.41 144.91,-139.41 136.63,-132.8 134.32,-139.41"/>
</a>
</g>
</g>
<!-- Node10&#45;&gt;Node7 -->
<g id="edge15_Node000010_Node000007" class="edge">
<title>Node10&#45;&gt;Node7</title>
<g id="a_edge15_Node000010_Node000007"><a xlink:title=" ">
<path fill="none" stroke="#63b8ff" d="M125.08,-105.33C113.09,-103.63 100.52,-101.84 88.99,-100.2"/>
<polygon fill="#63b8ff" stroke="#63b8ff" points="124.46,-108.78 134.85,-106.72 125.45,-101.85 124.46,-108.78"/>
</a>
</g>
</g>
<!-- Node11&#45;&gt;Node7 -->
<g id="edge17_Node000011_Node000007" class="edge">
<title>Node11&#45;&gt;Node7</title>
<g id="a_edge17_Node000011_Node000007"><a xlink:title=" ">
<path fill="none" stroke="#63b8ff" d="M126.62,-83.06C114.16,-84.73 100.99,-86.51 88.97,-88.13"/>
<polygon fill="#63b8ff" stroke="#63b8ff" points="126.87,-86.55 136.32,-81.75 125.94,-79.62 126.87,-86.55"/>
</a>
</g>
</g>
</g>
</svg>
